<?xml version="1.0" encoding="UTF-8"?>
<svg width="1260px" height="284px" viewBox="0 0 1260 284" version="1.1" xmlns="http://www.w3.org/2000/svg" xmlns:xlink="http://www.w3.org/1999/xlink">
    <title>sykom24</title>
    <g id="Page-1" stroke="none" stroke-width="1" fill="none" fill-rule="evenodd">
        <g id="sykom24" transform="translate(0.5, 0.5)" fill="#FFFFFF" fill-rule="nonzero">
            <path d="M1225.98001,86.8579 C1228.46529,86.8579 1230.48001,88.8726186 1230.48001,91.3579 L1230.47901,151.33381 L1254.44001,151.334 C1256.85428,151.334 1258.8245,153.235237 1258.93511,155.622164 L1258.94001,155.834 L1258.94001,166.21 C1258.94001,168.695281 1256.92529,170.71 1254.44001,170.71 L1230.47901,170.70981 L1230.48001,219.866 C1230.48001,222.280273 1228.57877,224.250489 1226.19184,224.361102 L1225.98001,224.366 L1215.31001,224.366 C1212.82473,224.366 1210.81001,222.351281 1210.81001,219.866 L1210.81001,91.3579 C1210.81001,88.8726186 1212.82473,86.8579 1215.31001,86.8579 L1225.98001,86.8579 Z M1219.02001,1.77881 C1222.53189,1.77881 1224.6903,5.62222442 1222.86246,8.62094051 L1135.87201,151.33381 L1171.73001,151.334 C1174.14428,151.334 1176.1145,153.235237 1176.22511,155.622164 L1176.23001,155.834 L1176.23001,166.21 C1176.23001,168.695281 1174.21529,170.71 1171.73001,170.71 L1114.67001,170.71 C1112.18473,170.71 1110.17001,168.695281 1110.17001,166.21 L1110.17001,155.834 C1110.17001,155.002225 1110.40054,154.186725 1110.83601,153.478053 L1202.73601,3.92286304 C1203.55469,2.59058034 1205.00629,1.77881 1206.57001,1.77881 L1219.02001,1.77881 Z M1062.90001,204.694 C1065.38529,204.694 1067.40001,206.708719 1067.40001,209.194 L1067.40001,219.866 C1067.40001,222.351281 1065.38529,224.366 1062.90001,224.366 L942.988008,224.366 C940.502726,224.366 938.488008,222.351281 938.488008,219.866 L938.488008,209.194 C938.488008,206.708719 940.502726,204.694 942.988008,204.694 L1062.90001,204.694 Z M1006.72001,0 C1018.08414,0 1027.95743,2.30247839 1036.23828,6.93106418 L1036.80042,7.25025436 C1045.25266,12.0166602 1051.74629,18.6187753 1056.20232,26.9902945 C1060.6079,35.2670181 1062.80001,44.6383636 1062.80001,55.0435 C1062.80001,76.0817247 1055.67697,96.686261 1041.52917,116.775093 C1040.68627,117.971945 1039.31388,118.684 1037.85001,118.684 L1025.10001,118.684 C1021.42573,118.684 1019.30015,114.518628 1021.45619,111.543431 C1027.5245,103.169555 1032.12565,95.6437494 1035.24906,89.0167243 C1038.3732,82.2933109 1040.42926,76.3150447 1041.4472,71.0104857 C1042.57255,65.6841014 1043.13001,60.803148 1043.13001,56.3775 C1043.13001,45.6288569 1040.0522,37.0356075 1033.85644,30.3112224 L1033.50241,29.9325909 C1027.38323,23.2991806 1018.72081,19.7693303 1007.23505,19.3915446 L1006.666,19.375 L1006.09811,19.3840878 C996.437514,19.5540807 988.970984,21.5451901 983.614326,25.2486882 L983.252368,25.5038516 C977.782096,29.4107121 973.760577,33.8340923 971.117602,38.8076098 L970.849105,39.3240755 C968.000956,44.8312657 966.030856,49.4278332 964.93746,53.0748851 C964.197502,55.5430348 961.540159,56.8870545 959.113572,56.0204663 L948.737572,52.3149663 C946.460502,51.501774 945.233069,49.0345028 945.958051,46.7278319 C947.121131,43.0272686 948.934419,38.6753782 951.397547,33.6474619 C953.958031,28.4186096 957.502952,23.2867457 962.052869,18.208179 C966.648261,13.1952068 972.41094,9.01926799 979.267428,5.6957083 L980.006234,5.34287497 C987.384929,1.76185213 996.299927,0 1006.72001,0 Z M739.018008,66.1069 C753.210805,66.1069 764.814933,69.5611018 773.675807,76.5622333 C779.73674,81.351082 784.591631,87.4384562 788.238514,94.7821847 L788.534008,95.3859 L788.564398,95.332928 C792.226359,89.0595612 796.795544,83.575519 802.263895,78.899324 L802.832794,78.4184622 C811.381264,71.2763394 821.906628,67.228152 834.272874,66.2685865 C836.887504,66.0657029 839.121008,68.1326106 839.121008,70.7551 L839.121008,81.1306 C839.121008,83.5253218 837.245536,85.5005593 834.854027,85.6245629 C822.877504,86.2455644 813.669856,91.240335 806.850484,100.804678 C799.839635,110.546431 796.285008,123.565168 796.285008,139.975 L796.285008,219.866 C796.285008,222.351281 794.270289,224.366 791.785008,224.366 L781.113008,224.366 C778.627726,224.366 776.613008,222.351281 776.613008,219.866 L776.613008,136.269 C776.613008,126.428977 775.211024,117.718667 772.414566,110.080879 L772.148313,109.367977 C769.381389,101.870364 765.164242,96.0718085 759.43219,91.8386697 C753.839531,87.6227125 746.588607,85.4824 737.536008,85.4824 C725.011115,85.4824 715.388402,90.2071208 708.242864,99.8226186 C700.864568,109.751148 697.125008,123.093653 697.125008,139.975 L697.125008,219.866 C697.125008,222.351281 695.110289,224.366 692.625008,224.366 L681.953008,224.366 C679.467726,224.366 677.453008,222.351281 677.453008,219.866 L677.453008,72.8303 C677.453008,70.3450186 679.467726,68.3303 681.953008,68.3303 L692.625008,68.3303 C695.110289,68.3303 697.125008,70.3450186 697.125008,72.8303 L697.125008,85.9399 L697.525061,85.4607696 C700.412535,82.0362643 703.659794,78.9479867 707.263362,76.2012089 L707.867256,75.7465756 C716.481356,69.3130366 726.914594,66.1069 739.018008,66.1069 Z M891.242008,129.546 C893.727289,129.546 895.742008,131.560719 895.742008,134.046 L895.742008,219.866 C895.742008,222.351281 893.727289,224.366 891.242008,224.366 L880.570008,224.366 C878.084726,224.366 876.070008,222.351281 876.070008,219.866 L876.070008,134.046 C876.070008,131.560719 878.084726,129.546 880.570008,129.546 L891.242008,129.546 Z M559.588008,66.4033 L559.737008,66.4033 C574.511999,66.4033 587.613219,70.048471 598.933635,77.3486566 C610.172517,84.5955776 618.958694,94.3288695 625.237571,106.470321 C631.509708,118.490947 634.642008,131.853737 634.642008,146.496 C634.642008,161.134273 631.511512,174.541897 625.245149,186.65609 C618.958764,198.8121 610.172623,208.545167 598.933748,215.791871 C587.613178,223.091941 574.511977,226.737 559.737008,226.737 C544.966011,226.737 531.82091,223.094591 520.406312,215.802169 C509.072015,208.561048 500.186981,198.834546 493.783082,186.656507 C487.516931,174.542723 484.387008,161.13529 484.387008,146.496 C484.387008,144.010719 486.401726,141.996 488.887008,141.996 L500.448008,141.996 C502.933289,141.996 504.948008,144.010719 504.948008,146.496 C504.948008,157.880943 507.219397,168.171386 511.73593,177.388539 C516.334064,186.584807 522.684642,193.895022 530.781178,199.353614 C538.915259,204.686089 548.53041,207.362 559.737008,207.362 C570.836293,207.362 580.34588,204.690279 588.36676,199.372838 C596.392134,194.022288 602.571256,186.950019 606.966059,178.059304 L607.27694,177.421159 C611.808805,168.171137 614.080008,157.880474 614.080008,146.496 C614.080008,135.212691 611.809438,124.971092 607.261326,115.686647 C602.971082,106.75066 596.888225,99.6494106 588.919815,94.2836206 L588.347435,93.9033 C580.492769,88.6077024 571.227285,85.8955009 560.442517,85.7824854 L559.588008,85.7788 C557.102726,85.7788 555.088008,83.7640814 555.088008,81.2788 L555.088008,70.9033 C555.088008,68.4180186 557.102726,66.4033 559.588008,66.4033 Z M427.289008,68.3302 C431.007564,68.3302 433.12144,72.5844561 430.87549,75.5481305 L379.236008,143.68981 L440.524042,216.979226 C442.930903,219.857376 440.962595,224.210076 437.271384,224.361917 L437.072008,224.366 L423.287008,224.366 C421.956949,224.366 420.695025,223.777608 419.840009,222.758784 L356.401009,147.165784 C355.050005,145.555946 354.993193,143.225357 356.264154,141.551605 L410.514154,70.108805 C411.36503,68.9882703 412.691029,68.3302 414.098008,68.3302 L427.289008,68.3302 Z M344.285008,1.77881 C346.770289,1.77881 348.785008,3.79352863 348.785008,6.27881 L348.785008,219.866 C348.785008,222.351281 346.770289,224.366 344.285008,224.366 L333.613008,224.366 C331.127726,224.366 329.113008,222.351281 329.113008,219.866 L329.113008,6.27881 C329.113008,3.79352863 331.127726,1.77881 333.613008,1.77881 L344.285008,1.77881 Z M281.728008,67.8853 C284.874999,67.8853 287.050072,71.0328257 285.93729,73.9765089 L230.368773,220.973355 L229.658483,222.89693 C225.656384,233.683734 222.043474,242.541178 218.832425,249.4368 C215.388237,257.054995 211.286544,263.522558 206.519192,268.819489 C198.919874,277.287834 191.160646,282.067077 183.176963,282.889329 C176.210936,283.606664 169.683489,283.234924 163.611935,281.758901 L163.339,281.69 L163.096027,281.662655 C162.577075,281.589677 162.068117,281.452176 161.573443,281.237789 L161.278387,281.099832 C159.50946,280.210879 158.529288,278.270262 158.863655,276.318971 L160.641655,265.942971 C161.081648,263.375274 163.603334,261.716523 166.135379,262.329232 C176.741239,264.895654 184.428389,263.284417 189.872065,257.646094 L190.137981,257.365553 C196.328266,250.901639 203.254025,237.671254 210.68211,217.799996 L216.448889,202.866317 L266.102889,70.8016174 C266.762539,69.0471452 268.440625,67.8853 270.315008,67.8853 L281.728008,67.8853 Z M170.562008,67.8853 C172.432008,67.8853 174.107129,69.0417966 174.769896,70.790408 L202.634896,144.308108 C203.750847,147.252382 201.575673,150.403 198.427008,150.403 L187.014008,150.403 C185.141108,150.403 183.464025,149.242967 182.803317,147.490478 L155.086317,73.9727777 C153.976742,71.0296954 156.151711,67.8853 159.297008,67.8853 L170.562008,67.8853 Z M53.6859079,66.2549 C56.1711892,66.2549 58.1859079,68.2696186 58.1859079,70.7549 L58.1859079,81.4268 C58.1859079,83.9120814 56.1711892,85.9268 53.6859079,85.9268 L52.3519079,85.9268 C44.1381876,85.9268 37.5815006,87.2649137 32.6592552,89.8556381 C27.7839379,92.4215764 24.3423421,95.6558145 22.252109,99.5134283 C20.2705473,103.317972 19.4743103,107.501212 19.8718354,112.162976 L19.9080079,112.5579 L19.9577692,112.855564 C20.9877143,118.728959 24.3382252,123.294602 30.2736574,126.768916 L30.6823547,127.004112 C37.6729746,130.907952 46.1453694,134.093139 56.1009474,136.540512 L57.1818374,136.802746 C63.4302948,138.415219 69.5787969,140.279854 75.5429584,142.368122 C81.8830037,144.447601 87.6731309,147.055662 92.8749011,150.176474 C98.4695733,153.468045 103.009849,157.620708 106.426103,162.580528 C110.05535,167.732665 111.842008,174.071759 111.842008,181.476 C111.842008,191.604938 109.229959,200.219436 103.940115,207.197687 C98.8018045,213.865918 92.0773768,218.895621 83.8438669,222.253754 C75.783867,225.541119 67.1038269,227.182 57.8361079,227.182 C56.6445446,227.182 55.4792118,227.147602 54.3406747,227.07891 L53.6790079,227.0339 L53.4740722,227.029102 C51.1573481,226.921742 49.2981655,225.06256 49.1908059,222.745836 L49.1859079,222.534 L49.1859079,212.158 C49.1859079,209.546222 51.4020031,207.483049 54.0071191,207.669479 C55.279941,207.760565 56.556168,207.806 57.8361079,207.806 C63.934395,207.806 69.6845785,206.809865 75.111018,204.820073 C80.2881341,202.921736 84.3993168,200.039833 87.5685055,196.099882 C90.6200204,192.406272 92.1701079,187.592887 92.1701079,181.476 C92.1701079,177.130981 90.8123166,173.75484 88.0040615,171.022115 C84.9168153,167.935129 80.4377378,165.185354 74.544462,162.82819 C68.5699252,160.438561 61.5395119,158.212371 53.4618804,156.157689 L52.466,155.906 L51.4308572,155.669035 C39.5721111,152.89496 29.028605,148.87991 19.796333,143.604554 L18.9346489,143.106296 C8.57201685,136.977591 2.31489174,127.5075 0.328897454,115.039891 L0.302525918,114.847776 C-0.689805808,106.24702 0.760068527,98.2170642 4.63805252,90.9045293 C8.43046078,83.6447294 14.3158726,77.7821538 22.1551834,73.3738915 L22.7322766,73.053932 C30.863023,68.5006701 40.7551093,66.2549 52.3519079,66.2549 L53.6859079,66.2549 Z" id="Shape"></path>
        </g>
    </g>
</svg>